<svg width="130" height="130" viewBox="0 0 130 130" fill="none" xmlns="http://www.w3.org/2000/svg">
<g filter="url(#filter0_d)">
<path d="M31.2529 94.6138C29.3772 92.7381 26.8834 91.7052 24.2312 91.7052C22.6644 91.7052 21.1541 92.0685 19.7926 92.7501C6.4138 73.7952 6.3674 47.8206 19.9058 28.8198C20.6568 27.7655 20.4112 26.3021 19.3569 25.5509C18.3027 24.7998 16.8393 25.0454 16.0881 26.0996C8.62021 36.5806 4.78911 48.9575 5.00896 61.892C5.21825 74.2011 9.0831 85.8777 16.2037 95.7901C13.3743 99.6714 13.7092 105.156 17.2096 108.657C19.1455 110.593 21.6883 111.561 24.2312 111.561C26.7742 111.561 29.317 110.593 31.2529 108.657C35.1245 104.785 35.1245 98.4857 31.2529 94.6138ZM27.9381 105.342C25.8937 107.386 22.5681 107.386 20.5241 105.342C18.4799 103.298 18.4799 99.9721 20.5241 97.9281C21.5144 96.9379 22.8309 96.3925 24.231 96.3925C25.6312 96.3925 26.9479 96.9379 27.9379 97.9281C29.9823 99.9723 29.9823 103.298 27.9381 105.342Z" fill="#dbbc6f"/>
<path d="M100.616 106.274C99.859 105.225 98.3942 104.989 97.3444 105.747C90.6441 110.589 83.112 113.796 74.9571 115.28C73.0676 115.625 71.1406 115.118 69.6703 113.891C68.2106 112.674 67.3737 110.884 67.3737 108.983V91.8036H67.5783C70.2921 91.8036 72.5002 89.5958 72.5002 86.8817V82.9247C80.4392 79.8943 86.0939 72.2007 86.0939 63.21V52.1135C89.8711 51.0818 92.6564 47.6222 92.6564 43.5225C92.6564 39.0091 89.2807 35.2715 84.9221 34.6957V20.085C84.9221 16.2079 81.7678 13.0537 77.8908 13.0537C74.0138 13.0537 70.8595 16.2079 70.8595 20.085V34.6162H59.1408V20.085C59.1408 16.2079 55.9866 13.0537 52.1095 13.0537C48.2325 13.0537 45.0783 16.2079 45.0783 20.085V34.6957C40.7196 35.2715 37.3439 39.0089 37.3439 43.5225C37.3439 47.6222 40.1292 51.0818 43.9064 52.1135V63.21C43.9064 72.2007 49.5612 79.8943 57.5001 82.9247V86.8819C57.5001 89.596 59.7082 91.8038 62.422 91.8038H62.6862V108.983C62.6862 112.279 64.1372 115.38 66.667 117.491C68.6862 119.175 71.2024 120.074 73.7871 120.074C74.4549 120.074 75.127 120.014 75.7964 119.892C84.6446 118.282 92.8179 114.801 100.089 109.547C101.138 108.789 101.374 107.323 100.616 106.274ZM75.5473 20.085C75.5473 18.7926 76.5987 17.7412 77.891 17.7412C79.1834 17.7412 80.2348 18.7926 80.2348 20.085V34.6162H75.5473V20.085ZM49.766 20.085C49.766 18.7926 50.8174 17.7412 52.1098 17.7412C53.4021 17.7412 54.4535 18.7926 54.4535 20.085V34.6162H49.766V20.085ZM42.0316 43.5225C42.0316 41.1963 43.9242 39.3037 46.2504 39.3037H83.7504C86.0766 39.3037 87.9692 41.1963 87.9692 43.5225C87.9692 45.8487 86.0766 47.7413 83.7504 47.7413H46.2504C43.9242 47.7413 42.0316 45.8487 42.0316 43.5225ZM48.5941 63.21V52.4288H81.4067V63.21C81.4067 72.2564 74.0468 79.6163 65.0004 79.6163C55.954 79.6163 48.5941 72.2564 48.5941 63.21ZM65.0892 87.1163C65.0695 87.1158 65.0501 87.1133 65.0304 87.1133C65.0107 87.1133 64.9913 87.1158 64.9716 87.1163H62.4227C62.2929 87.1163 62.1879 87.0111 62.1879 86.8819V84.1158C63.1083 84.2391 64.047 84.3038 65.0004 84.3038C65.9538 84.3038 66.8925 84.2391 67.8129 84.1158V86.8819C67.8129 87.0111 67.7079 87.1163 67.5785 87.1163H65.0892Z" fill="#dbbc6f"/>
<path d="M107.369 99.9218C106.44 99.0546 104.992 99.0881 104.104 99.986C104.086 100.004 104.068 100.023 104.051 100.041C103.168 100.988 103.219 102.47 104.165 103.354C104.617 103.775 105.191 103.984 105.764 103.984C106.369 103.984 106.973 103.751 107.43 103.29C107.448 103.271 107.466 103.253 107.483 103.234C108.366 102.288 108.315 100.805 107.369 99.9218Z" fill="#dbbc6f"/>
<path d="M124.841 56.4851C123.797 42.1371 117.612 28.6259 107.428 18.4406C97.417 8.42929 84.0445 2.30131 69.7736 1.18592C55.6767 0.0836537 41.6467 3.90913 30.2636 11.9566C29.2065 12.7038 28.9555 14.1666 29.7027 15.2234C30.4497 16.2802 31.9126 16.5316 32.9694 15.7842C54.7366 0.395842 85.3216 2.96249 104.113 21.7552C123.533 41.1757 125.881 71.334 109.696 93.4646C108.932 94.5095 109.16 95.9757 110.205 96.74C110.622 97.0452 111.106 97.1921 111.586 97.1921C112.309 97.1921 113.021 96.8596 113.48 96.2317C121.84 84.8002 125.875 70.6848 124.841 56.4851Z" fill="#dbbc6f"/>
<path d="M35.7852 27.464C34.4114 26.1028 32.1939 26.1119 30.8324 27.486L30.7753 27.5442C29.4138 28.9176 29.4239 31.135 30.7974 32.4966C31.4803 33.1732 32.3715 33.5111 33.2627 33.5111C34.1638 33.5111 35.0652 33.1651 35.7501 32.4745L35.8072 32.4164C37.1688 31.0429 37.1586 28.8255 35.7852 27.464Z" fill="#dbbc6f"/>
<path d="M70.2848 62.3421C69.8648 61.6216 69.0937 61.1787 68.2598 61.1787H66.585L69.6698 57.282C70.4733 56.2671 70.3017 54.7929 69.2869 53.9897C68.272 53.186 66.7978 53.3578 65.9944 54.3724L59.9025 62.0677C59.3447 62.7724 59.239 63.7341 59.6304 64.5431C60.0218 65.3522 60.8414 65.8662 61.7402 65.8662H64.2387L61.3685 70.9338C60.7305 72.0603 61.1266 73.4904 62.2526 74.1281C62.6177 74.3349 63.0141 74.4331 63.4057 74.4331C64.223 74.4328 65.0163 74.0051 65.4476 73.2438L70.2994 64.6774C70.7105 63.9518 70.7048 63.0626 70.2848 62.3421Z" fill="#dbbc6f"/>
</g>
<defs>
<filter id="filter0_d" x="0" y="0" width="130" height="129.074" filterUnits="userSpaceOnUse" color-interpolation-filters="sRGB">
<feFlood flood-opacity="0" result="BackgroundImageFix"/>
<feColorMatrix in="SourceAlpha" type="matrix" values="0 0 0 0 0 0 0 0 0 0 0 0 0 0 0 0 0 0 127 0"/>
<feOffset dy="4"/>
<!-- <feGaussianBlur stdDeviation="2.5"/> -->
<feColorMatrix type="matrix" values="0 0 0 0 0.8125 0 0 0 0 0.641552 0 0 0 0 0.379167 0 0 0 0.862 0"/>
<!-- <feBlend mode="normal" in2="BackgroundImageFix" result="effect1_dropShadow"/> -->
<!-- <feBlend mode="normal" in="SourceGraphic" in2="effect1_dropShadow" result="shape"/> -->
</filter>
</defs>
</svg>
