<svg width="17" height="24" viewBox="0 0 17 24" fill="none" xmlns="http://www.w3.org/2000/svg">
<path fill-rule="evenodd" clip-rule="evenodd" d="M0 8.4375C0 3.78506 3.79495 0 8.45953 0C13.1241 0 16.9191 3.78506 16.9191 8.4375C16.9191 9.96277 16.5065 11.4576 15.7259 12.7603L9.18179 23.6582C9.05551 23.8686 8.82842 23.9981 8.58257 24H8.57698C8.33325 24 8.10663 23.8744 7.978 23.6676L1.26277 12.8743C0.436559 11.5434 0 10.0094 0 8.4375ZM8.56631 21.9462L14.5159 12.0383C15.1655 10.9541 15.5138 9.7088 15.5138 8.4375C15.5138 4.56047 12.3467 1.39687 8.45953 1.39687C4.57238 1.39687 1.40052 4.56047 1.40052 8.4375C1.40052 9.74766 1.7734 11.0257 2.46111 12.1334L8.56631 21.9462ZM4.22977 8.43747C4.22977 6.11128 6.12724 4.21877 8.45953 4.21877C10.7918 4.21877 12.6893 6.11128 12.6893 8.43747C12.6893 10.7234 10.8518 12.6562 8.45953 12.6562C6.09636 12.6562 4.22977 10.7488 4.22977 8.43747ZM5.63029 8.43747C5.63029 9.99215 6.89654 11.2593 8.45953 11.2593C10.0473 11.2593 11.2841 9.96946 11.2841 8.43747C11.2841 6.88668 10.0144 5.61563 8.45953 5.61563C6.90467 5.61563 5.63029 6.88668 5.63029 8.43747Z" fill="white"/>
</svg>
