<svg width="130" height="126" viewBox="0 0 130 126" fill="none" xmlns="http://www.w3.org/2000/svg">
<g filter="url(#filter0_d)">
<path d="M123 89H117V83C117 82.4696 116.789 81.9609 116.414 81.5858C116.039 81.2107 115.53 81 115 81H107C106.47 81 105.961 81.2107 105.586 81.5858C105.211 81.9609 105 82.4696 105 83C105 83.5304 105.211 84.0391 105.586 84.4142C105.961 84.7893 106.47 85 107 85H113V89H101V87C101 86.4696 100.789 85.9609 100.414 85.5858C100.039 85.2107 99.5304 85 99 85C98.4696 85 97.9609 85.2107 97.5858 85.5858C97.2107 85.9609 97 86.4696 97 87V89H85V85H91C91.5304 85 92.0391 84.7893 92.4142 84.4142C92.7893 84.0391 93 83.5304 93 83C93 82.4696 92.7893 81.9609 92.4142 81.5858C92.0391 81.2107 91.5304 81 91 81H83C82.4696 81 81.9609 81.2107 81.5858 81.5858C81.2107 81.9609 81 82.4696 81 83V89H49V83C49 82.4696 48.7893 81.9609 48.4142 81.5858C48.0391 81.2107 47.5304 81 47 81H39C38.4696 81 37.9609 81.2107 37.5858 81.5858C37.2107 81.9609 37 82.4696 37 83C37 83.5304 37.2107 84.0391 37.5858 84.4142C37.9609 84.7893 38.4696 85 39 85H45V89H33V87C33 86.4696 32.7893 85.9609 32.4142 85.5858C32.0391 85.2107 31.5304 85 31 85C30.4696 85 29.9609 85.2107 29.5858 85.5858C29.2107 85.9609 29 86.4696 29 87V89H17V85H23C23.5304 85 24.0391 84.7893 24.4142 84.4142C24.7893 84.0391 25 83.5304 25 83C25 82.4696 24.7893 81.9609 24.4142 81.5858C24.0391 81.2107 23.5304 81 23 81H15C14.4696 81 13.9609 81.2107 13.5858 81.5858C13.2107 81.9609 13 82.4696 13 83V89H7C6.46957 89 5.96086 89.2107 5.58579 89.5858C5.21071 89.9609 5 90.4696 5 91V115C5 115.53 5.21071 116.039 5.58579 116.414C5.96086 116.789 6.46957 117 7 117H123C123.53 117 124.039 116.789 124.414 116.414C124.789 116.039 125 115.53 125 115V91C125 90.4696 124.789 89.9609 124.414 89.5858C124.039 89.2107 123.53 89 123 89ZM121 113H9V93H121V113Z" fill="#dbbc6f"/>
<path d="M49 109H81C81.5304 109 82.0391 108.789 82.4142 108.414C82.7893 108.039 83 107.53 83 107V99C83 98.4696 82.7893 97.9609 82.4142 97.5858C82.0391 97.2107 81.5304 97 81 97H49C48.4696 97 47.9609 97.2107 47.5858 97.5858C47.2107 97.9609 47 98.4696 47 99V107C47 107.53 47.2107 108.039 47.5858 108.414C47.9609 108.789 48.4696 109 49 109ZM51 101H79V105H51V101Z" fill="#dbbc6f"/>
<path d="M21 109C22.1867 109 23.3467 108.648 24.3334 107.989C25.3201 107.33 26.0892 106.392 26.5433 105.296C26.9974 104.2 27.1162 102.993 26.8847 101.829C26.6532 100.666 26.0818 99.5965 25.2426 98.7574C24.4035 97.9182 23.3344 97.3468 22.1705 97.1153C21.0067 96.8838 19.8003 97.0026 18.7039 97.4567C17.6075 97.9109 16.6705 98.6799 16.0112 99.6666C15.3519 100.653 15 101.813 15 103C15.0018 104.591 15.6345 106.116 16.7593 107.241C17.8842 108.366 19.4092 108.998 21 109ZM21 101C21.3956 101 21.7822 101.117 22.1111 101.337C22.44 101.557 22.6964 101.869 22.8478 102.235C22.9991 102.6 23.0387 103.002 22.9616 103.39C22.8844 103.778 22.6939 104.135 22.4142 104.414C22.1345 104.694 21.7781 104.884 21.3902 104.962C21.0022 105.039 20.6001 104.999 20.2346 104.848C19.8692 104.696 19.5568 104.44 19.3371 104.111C19.1173 103.782 19 103.396 19 103C19.0005 102.47 19.2114 101.961 19.5864 101.586C19.9613 101.211 20.4697 101.001 21 101Z" fill="#dbbc6f"/>
<path d="M37 109C38.1867 109 39.3467 108.648 40.3334 107.989C41.3201 107.33 42.0892 106.392 42.5433 105.296C42.9974 104.2 43.1162 102.993 42.8847 101.829C42.6532 100.666 42.0818 99.5965 41.2426 98.7574C40.4035 97.9182 39.3344 97.3468 38.1705 97.1153C37.0067 96.8838 35.8003 97.0026 34.7039 97.4567C33.6075 97.9109 32.6705 98.6799 32.0112 99.6666C31.3519 100.653 31 101.813 31 103C31.0018 104.591 31.6345 106.116 32.7593 107.241C33.8842 108.366 35.4092 108.998 37 109ZM37 101C37.3956 101 37.7822 101.117 38.1111 101.337C38.44 101.557 38.6964 101.869 38.8478 102.235C38.9991 102.6 39.0387 103.002 38.9616 103.39C38.8844 103.778 38.6939 104.135 38.4142 104.414C38.1345 104.694 37.7781 104.884 37.3902 104.962C37.0022 105.039 36.6001 104.999 36.2346 104.848C35.8692 104.696 35.5568 104.44 35.3371 104.111C35.1173 103.782 35 103.396 35 103C35.0005 102.47 35.2114 101.961 35.5864 101.586C35.9613 101.211 36.4697 101.001 37 101Z" fill="#dbbc6f"/>
<path d="M93 109C94.1867 109 95.3467 108.648 96.3334 107.989C97.3201 107.33 98.0891 106.392 98.5433 105.296C98.9974 104.2 99.1162 102.993 98.8847 101.829C98.6532 100.666 98.0818 99.5965 97.2426 98.7574C96.4035 97.9182 95.3344 97.3468 94.1705 97.1153C93.0067 96.8838 91.8003 97.0026 90.7039 97.4567C89.6075 97.9109 88.6705 98.6799 88.0112 99.6666C87.3519 100.653 87 101.813 87 103C87.0018 104.591 87.6345 106.116 88.7593 107.241C89.8842 108.366 91.4092 108.998 93 109ZM93 101C93.3956 101 93.7822 101.117 94.1111 101.337C94.44 101.557 94.6964 101.869 94.8478 102.235C94.9991 102.6 95.0387 103.002 94.9616 103.39C94.8844 103.778 94.6939 104.135 94.4142 104.414C94.1345 104.694 93.7781 104.884 93.3902 104.962C93.0022 105.039 92.6001 104.999 92.2346 104.848C91.8692 104.696 91.5568 104.44 91.3371 104.111C91.1173 103.782 91 103.396 91 103C91.0005 102.47 91.2114 101.961 91.5864 101.586C91.9613 101.211 92.4697 101.001 93 101Z" fill="#dbbc6f"/>
<path d="M109 109C110.187 109 111.347 108.648 112.333 107.989C113.32 107.33 114.089 106.392 114.543 105.296C114.997 104.2 115.116 102.993 114.885 101.829C114.653 100.666 114.082 99.5965 113.243 98.7574C112.404 97.9182 111.334 97.3468 110.171 97.1153C109.007 96.8838 107.8 97.0026 106.704 97.4567C105.608 97.9109 104.67 98.6799 104.011 99.6666C103.352 100.653 103 101.813 103 103C103.002 104.591 103.634 106.116 104.759 107.241C105.884 108.366 107.409 108.998 109 109ZM109 101C109.396 101 109.782 101.117 110.111 101.337C110.44 101.557 110.696 101.869 110.848 102.235C110.999 102.6 111.039 103.002 110.962 103.39C110.884 103.778 110.694 104.135 110.414 104.414C110.135 104.694 109.778 104.884 109.39 104.962C109.002 105.039 108.6 104.999 108.235 104.848C107.869 104.696 107.557 104.44 107.337 104.111C107.117 103.782 107 103.396 107 103C107.001 102.47 107.211 101.961 107.586 101.586C107.961 101.211 108.47 101.001 109 101Z" fill="#dbbc6f"/>
<path d="M123 37H121.308L85 25.5345V3C85 2.46957 84.7893 1.96086 84.4142 1.58579C84.0391 1.21071 83.5304 1 83 1H47C46.4696 1 45.9609 1.21071 45.5858 1.58579C45.2107 1.96086 45 2.46957 45 3V25.5583L10.675 37H7C6.46957 37 5.96086 37.2107 5.58579 37.5858C5.21071 37.9609 5 38.4696 5 39V47C5 47.5304 5.21071 48.0391 5.58579 48.4142C5.96086 48.7893 6.46957 49 7 49H123C123.53 49 124.039 48.7893 124.414 48.4142C124.789 48.0391 125 47.5304 125 47V39C125 38.4696 124.789 37.9609 124.414 37.5858C124.039 37.2107 123.53 37 123 37ZM49 5H81V25H49V5ZM47.325 29H82.6915L108.025 37H23.325L47.325 29ZM121 45H9V41H121V45Z" fill="#dbbc6f"/>
</g>
<defs>
<filter id="filter0_d" x="0" y="0" width="130" height="126" filterUnits="userSpaceOnUse" color-interpolation-filters="sRGB">
<feFlood flood-opacity="0" result="BackgroundImageFix"/>
<feColorMatrix in="SourceAlpha" type="matrix" values="0 0 0 0 0 0 0 0 0 0 0 0 0 0 0 0 0 0 127 0"/>
<feOffset dy="4"/>
<!-- <feGaussianBlur stdDeviation="2.5"/> -->
<feColorMatrix type="matrix" values="0 0 0 0 0.8125 0 0 0 0 0.641552 0 0 0 0 0.379167 0 0 0 0.862 0"/>
<!-- <feBlend mode="normal" in2="BackgroundImageFix" result="effect1_dropShadow"/> -->
<!-- <feBlend mode="normal" in="SourceGraphic" in2="effect1_dropShadow" result="shape"/> -->
</filter>
</defs>
</svg>
