<svg width="130" height="130" viewBox="0 0 130 130" fill="none" xmlns="http://www.w3.org/2000/svg">
<g filter="url(#filter0_d)">
<path d="M109.872 100.77C119.273 90.1745 125 76.2462 125 61C125 45.1372 118.801 30.7041 108.713 19.9641V19.9621C108.705 19.9497 108.692 19.9455 108.686 19.9352C98.1779 8.76483 83.4552 1.61448 67.0793 1.05379L67.0772 1.05172L65.9083 1.02069C65.6062 1.01034 65.3041 1 65 1C64.6959 1 64.3938 1.01034 64.0917 1.02069L62.9269 1.05172L62.9248 1.05379C46.549 1.61448 31.8262 8.76483 21.3179 19.9352C21.3097 19.9455 21.2972 19.9497 21.291 19.9621C21.291 19.9621 21.291 19.9641 21.289 19.9662C11.1986 30.7041 5 45.1372 5 61C5 76.2462 10.7269 90.1745 20.1283 100.77C20.1407 100.788 20.1407 100.809 20.1552 100.828C20.1924 100.879 20.2462 100.904 20.2855 100.952C30.8497 112.761 46.0069 120.369 62.9228 120.948L62.9248 120.95L64.0897 120.981C64.3938 120.99 64.6959 121 65 121C65.3041 121 65.6062 120.99 65.9083 120.979L67.0731 120.948L67.0752 120.946C84.0097 120.365 99.1834 112.743 109.748 100.908C109.774 100.873 109.818 100.863 109.843 100.826C109.859 100.809 109.859 100.788 109.872 100.77ZM9.18966 63.069H34.0234C34.2572 71.8393 35.9703 80.3614 39.02 88.3455C33.1359 90.4745 27.5103 93.3297 22.2386 96.8924C14.4862 87.671 9.66138 75.9172 9.18966 63.069ZM23.3683 23.8062C28.5159 27.1538 33.9965 29.8352 39.7131 31.8379C36.2124 40.3352 34.2759 49.4966 34.0234 58.931H9.18966C9.68414 45.4683 14.9559 33.2097 23.3683 23.8062ZM120.81 58.931H95.9765C95.7241 49.4966 93.7876 40.3352 90.2869 31.8379C96.0034 29.8352 101.484 27.1538 106.632 23.8062C115.044 33.2097 120.316 45.4683 120.81 58.931ZM62.931 31.9579C56.9497 31.7883 51.0779 30.8966 45.4048 29.3034C49.5986 20.7007 55.52 12.9359 62.931 6.47034V31.9579ZM62.931 36.0959V58.931H38.1614C38.4159 49.9352 40.3028 41.2103 43.6772 33.1207C49.8965 34.9228 56.3538 35.92 62.931 36.0959ZM67.069 36.0959C73.6462 35.92 80.1034 34.9248 86.3248 33.1207C89.6993 41.2103 91.5862 49.9352 91.8407 58.931H67.069V36.0959ZM67.069 31.9579V6.47034C74.48 12.9359 80.4014 20.7007 84.5952 29.3034C78.9221 30.8966 73.0503 31.7883 67.069 31.9579ZM88.6048 28.0455C84.6303 19.7179 79.1145 12.131 72.2848 5.62828C84.4007 7.2131 95.3021 12.6917 103.698 20.769C98.931 23.7938 93.8745 26.2269 88.6048 28.0455ZM41.3952 28.0455C36.1255 26.2269 31.069 23.7938 26.3041 20.769C34.6979 12.6917 45.6014 7.2131 57.7172 5.62828C50.8855 12.131 45.3697 19.7179 41.3952 28.0455ZM38.1614 63.069H62.931V83.8372C56.089 84.0193 49.3855 85.0869 42.9428 87.0255C40.0317 79.4634 38.3952 71.3841 38.1614 63.069ZM62.931 87.9752V115.53C54.9986 108.609 48.7793 100.201 44.5503 90.8738C50.4821 89.1255 56.6434 88.1531 62.931 87.9752ZM67.069 115.53V87.9752C73.3566 88.151 79.5179 89.1255 85.4496 90.8717C81.2207 100.201 75.0014 108.609 67.069 115.53ZM67.069 83.8372V63.069H91.8386C91.6048 71.3841 89.9683 79.4634 87.0552 87.0276C80.6145 85.0869 73.911 84.0193 67.069 83.8372ZM95.9765 63.069H120.81C120.339 75.9172 115.516 87.671 107.761 96.8924C102.49 93.3297 96.8641 90.4745 90.98 88.3455C94.0317 80.3614 95.7428 71.8393 95.9765 63.069ZM25.0503 99.9917C29.9455 96.7393 35.1572 94.1241 40.6028 92.169C44.6269 101.19 50.4034 109.41 57.7152 116.372C44.989 114.706 33.5993 108.748 25.0503 99.9917ZM72.2848 116.372C79.5965 109.412 85.3731 101.192 89.3972 92.169C94.8428 94.1241 100.052 96.7393 104.95 99.9917C96.4007 108.748 85.011 114.706 72.2848 116.372Z" fill="#B86020"/>
</g>
<defs>
<filter id="filter0_d" x="0" y="0" width="130" height="130" filterUnits="userSpaceOnUse" color-interpolation-filters="sRGB">
<feFlood flood-opacity="0" result="BackgroundImageFix"/>
<feColorMatrix in="SourceAlpha" type="matrix" values="0 0 0 0 0 0 0 0 0 0 0 0 0 0 0 0 0 0 127 0"/>
<feOffset dy="4"/>
<feGaussianBlur stdDeviation="2.5"/>
<feColorMatrix type="matrix" values="0 0 0 0 0.8125 0 0 0 0 0.641552 0 0 0 0 0.379167 0 0 0 0.862 0"/>
<feBlend mode="normal" in2="BackgroundImageFix" result="effect1_dropShadow"/>
<feBlend mode="normal" in="SourceGraphic" in2="effect1_dropShadow" result="shape"/>
</filter>
</defs>
</svg>
