<svg width="120" height="120" viewBox="0 0 120 120" fill="none" xmlns="http://www.w3.org/2000/svg">
<path d="M2.67201 37.5696C3.38657 40.2024 5.78758 42.0217 8.51551 41.9973C8.90877 41.9976 9.30132 41.9601 9.68754 41.8853L21.8067 39.5614L31.13 37.5155C34.1987 36.9638 36.3093 34.121 35.9496 31.024L34.8117 22.2985C34.6697 21.2125 37.1595 20.0086 39.4813 19.6587C52.9408 17.4811 66.6599 17.4454 80.1304 19.5528C83.8321 20.1907 84.65 20.7848 84.826 21.0068C85.198 21.9252 85.2523 22.9416 84.98 23.8945L84.164 29.6942C83.7051 31.5693 84.0308 33.5503 85.066 35.1798C86.5155 36.7114 88.4736 37.6619 90.5737 37.8536C91.9735 38.1215 93.0516 38.3915 94.1294 38.6535C95.2733 38.9375 96.4153 39.2214 97.903 39.5054L108.744 41.5973C110.63 42.1532 112.65 42.0358 114.458 41.2652C116.361 40.0388 117.594 38.0043 117.8 35.7496L117.866 35.4597C118.076 34.5358 118.354 33.6197 118.632 32.7038C119.423 30.5067 119.85 28.195 119.895 25.8603C119.573 21.7459 117.676 17.9144 114.6 15.163C100.753 1.57208 76.8025 0 60.0037 0C21.6527 0.000234359 7.03975 11.0395 1.53396 20.3009C0.0218793 22.8629 -0.393405 25.9262 0.382089 28.7982L2.67201 37.5696ZM4.9699 22.3487C9.94557 13.9753 23.5325 4.00004 60.0042 4.00004C76.1091 4.00004 99.0015 5.454 111.8 18.017C114.127 20.0501 115.589 22.8952 115.888 25.9705C115.818 27.8751 115.449 29.7568 114.792 31.5461C114.49 32.5461 114.192 33.556 113.956 34.5698L113.886 34.8738C113.552 36.3617 113.286 37.3636 112.6 37.7215C111.582 37.9989 110.505 37.9795 109.497 37.6654L98.6633 35.5977C97.2635 35.3298 96.1814 35.0598 95.1036 34.7978C93.9597 34.5138 92.8177 34.23 91.3339 33.9459C90.3761 33.762 88.7701 33.4559 88.2601 32.7821C87.9388 31.9825 87.8938 31.0985 88.1321 30.2703L88.95 24.4706C89.4274 22.5202 89.126 20.4607 88.1101 18.729C86.8181 16.8891 83.8403 16.1532 80.8185 15.6313C66.9248 13.451 52.7735 13.482 38.8894 15.7234C34.5136 16.3873 30.332 18.8432 30.852 22.8369L31.9919 31.5602C32.0744 32.5782 31.3463 33.4831 30.3341 33.6199L21.0068 35.6457L8.93572 37.9577C7.89235 38.1932 6.84453 37.582 6.53588 36.5579L4.25393 27.7985C3.74959 25.9595 4.00762 23.9948 4.9699 22.3487Z" fill="#dbbc6f"/>
<path d="M119.64 91.296C119.62 91.2439 119.6 91.194 119.578 91.1481C119.391 90.651 119.14 90.1804 118.832 89.7483L93.4115 55.2506C91.8999 53.2082 89.5111 52.0015 86.9699 51.9968H81.7702L80.0025 37.8518C79.924 35.7 78.1559 33.9966 76.0026 33.998H70.0031C67.794 33.998 66.0033 35.7888 66.0033 37.9979V53.9968C66.0033 55.1014 66.8985 55.9966 68.003 55.9966C69.1076 55.9966 70.0028 55.1014 70.0028 53.9968V37.9979H76.0024C76.0017 38.0808 76.0071 38.1638 76.0184 38.2458L78.0181 54.2448C78.1433 55.2455 78.9935 55.9964 80.002 55.9966H86.9695C88.2395 55.9987 89.4338 56.6017 90.1893 57.6226L114.042 89.9943H98.0007C96.8962 89.9943 96.001 90.8898 96.001 91.9941C96.001 93.0987 96.8962 93.9939 98.0007 93.9939H116V109.993C116 113.306 113.314 115.992 110 115.992H10.0074C6.69408 115.992 4.00786 113.306 4.00786 109.993V93.9939H88.0021C89.1066 93.9939 90.0018 93.0984 90.0018 91.9941C90.0018 90.8896 89.1066 89.9943 88.0021 89.9943H5.96569L29.818 57.6226C30.5736 56.6017 31.7677 55.9987 33.0379 55.9966H40.0054C41.0138 55.9964 41.8643 55.2453 41.9892 54.2448L43.989 38.2458C44.0003 38.1635 44.0056 38.0808 44.0049 37.9979H50.0045V53.9968C50.0045 55.1014 50.8998 55.9966 52.0043 55.9966H60.0037C61.1082 55.9966 62.0035 55.1014 62.0035 53.9968C62.0035 52.8923 61.1082 51.997 60.0037 51.997H54.0041V37.9981C54.0041 35.789 52.2134 33.9983 50.0043 33.9983H44.0047C41.8514 33.9969 40.0837 35.7002 40.0049 37.8521L38.239 51.997H33.0393C30.5012 52.0041 28.1156 53.2106 26.6057 55.2509L1.1761 89.7501C0.866044 90.1814 0.61528 90.6522 0.430137 91.15C0.408107 91.194 0.388187 91.2439 0.368032 91.2939C0.133907 91.9398 0.0122751 92.6208 0.00805664 93.3077V109.993C0.0146187 115.512 4.48759 119.985 10.0074 119.992H110.001C115.52 119.985 119.993 115.513 120 109.993V93.3077C119.996 92.6217 119.874 91.9412 119.64 91.296Z" fill="#dbbc6f"/>
<path d="M46.825 66.9697C48.6668 65.9868 50.6342 65.2593 52.6725 64.8077C57.5007 63.7299 62.5073 63.7299 67.3354 64.8077C68.0326 64.9734 68.7652 64.7531 69.2557 64.2305C69.7462 63.7079 69.9194 62.9628 69.7099 62.2773C69.5004 61.5921 68.94 61.0711 68.2412 60.9119C62.8167 59.698 57.1909 59.698 51.7662 60.9119C49.3718 61.4465 47.0612 62.305 44.8988 63.4639C43.003 64.4562 41.3323 65.8286 39.9911 67.4956C37.3398 70.6826 37.3398 75.3077 39.9911 78.4947C41.3323 80.1617 43.003 81.5344 44.8988 82.5264C47.0614 83.6851 49.3718 84.5435 51.7662 85.0783C57.19 86.2996 62.8174 86.2996 68.2412 85.0783C70.6356 84.5438 72.9461 83.6853 75.1086 82.5264C77.0043 81.5341 78.675 80.1617 80.0163 78.4947C82.6676 75.3077 82.6676 70.6826 80.0163 67.4956C79.5869 66.9118 78.8752 66.6062 78.1562 66.6964C77.4372 66.7866 76.8234 67.2589 76.5515 67.9305C76.2797 68.6022 76.3926 69.3686 76.8463 69.9334C78.3872 71.6838 78.3872 74.3065 76.8463 76.0569C75.8372 77.2814 74.5909 78.2897 73.1826 79.0206C71.3408 80.0035 69.3733 80.731 67.3351 81.1826C62.5069 82.2604 57.5003 82.2604 52.6722 81.1826C50.6345 80.7314 48.6677 80.004 46.8266 79.0206C45.4174 78.2899 44.1704 77.2819 43.1608 76.0569C41.6199 74.3065 41.6199 71.6838 43.1608 69.9334C44.1704 68.7088 45.4165 67.7009 46.825 66.9697Z" fill="#dbbc6f"/>
</svg>
