<svg width="130" height="105" viewBox="0 0 130 105" fill="none" xmlns="http://www.w3.org/2000/svg">
<g filter="url(#filter0_d)">
<path d="M73.0196 43.9218C73.1602 44.9072 74.004 45.6396 75 45.6396C75.0957 45.6396 75.1915 45.6328 75.2862 45.6201C76.3799 45.4628 77.1387 44.4492 76.9825 43.3564C74.8165 28.2001 58.1944 23.8759 57.4883 23.7001C56.42 23.4404 55.3428 24.0917 55.0762 25.1572C54.8086 26.2236 55.4522 27.3056 56.5157 27.58C56.6622 27.6162 71.2325 31.4003 73.0196 43.9218Z" fill="#B86020"/>
<path d="M123 47.6396C119.252 47.627 115.553 48.4932 112.2 50.1699C111.063 50.6973 109.896 51.1562 108.704 51.5439C107.997 40.9043 103.021 31.002 94.9043 24.0859C77.3564 9.28613 49.1436 10.2002 41 10.7998V7C41 3.68652 38.3135 1 35 1H27C23.6865 1 21 3.68652 21 7H5V35H21C21 38.3135 23.6865 41 27 41H35C38.3135 41 41 38.3135 41 35V31.1201C49.918 32.1738 52.6816 40.3438 53.2158 48.2637C50.5996 46.4756 47.4863 45.5576 44.3184 45.6396C40.4844 45.5879 36.7588 46.9141 33.8203 49.376C31.5596 51.3418 28.6533 52.4053 25.6582 52.3604C22.7051 52.4424 19.7871 51.6992 17.2324 50.2158C14.1152 48.4531 10.5801 47.5625 7 47.6396C5.89551 47.6396 5 48.5352 5 49.6396V61.6396C5.01172 61.748 5.0332 61.8555 5.06445 61.96C5.0332 62.0645 5.01172 62.1719 5 62.2803C5 63.3848 5.89551 64.2803 7 64.2803C9.99414 64.2354 12.8994 65.2969 15.1602 67.2617C18.0986 69.7256 21.8242 71.0518 25.6582 71C29.4922 71.0508 33.2178 69.7246 36.1582 67.2617C40.874 63.2852 47.7695 63.2852 52.4863 67.2617C55.4268 69.7246 59.1533 71.0508 62.9883 71C66.9717 70.9727 70.8457 69.6904 74.0576 67.334C79.3203 63.2598 86.6719 63.2598 91.9336 67.334C98.501 72.2246 107.499 72.2246 114.066 67.334C116.636 65.377 119.771 64.3057 123 64.2803C124.104 64.2803 125 63.3848 125 62.2803C124.988 62.1719 124.967 62.0645 124.936 61.96C124.967 61.8555 124.988 61.748 125 61.6396V49.6396C125 48.5352 124.104 47.6396 123 47.6396ZM9 31V11H21V31H9ZM37 35C37 36.1045 36.1045 37 35 37H27C25.8955 37 25 36.1045 25 35V7C25 5.89551 25.8955 5 27 5H35C36.1045 5 37 5.89551 37 7V35ZM41 27.0918V14.8301C48.2256 14.2939 75.8896 13.2822 92.3242 27.1436C99.7188 33.4824 104.207 42.5635 104.752 52.2881C104.2 52.332 103.626 52.3604 103 52.3604C102.075 52.3652 101.151 52.2832 100.242 52.1143C96.1602 31.4824 80.3076 25.9678 79.6416 25.7422C78.5928 25.3926 77.459 25.9609 77.1104 27.0098C76.7607 28.0596 77.3291 29.1934 78.3779 29.542C78.5137 29.5859 91.3262 34.0664 95.7119 50.3115C95.168 49.9961 94.6299 49.6602 94.0762 49.3115C87.5068 44.4219 78.5068 44.4219 71.9385 49.3115C70.5703 50.2412 69.1016 51.0137 67.5596 51.6143C67.5439 47.1807 66.6035 42.7998 64.7998 38.75C64.3076 37.7607 63.1064 37.3584 62.1172 37.8506C61.1279 38.3438 60.7256 39.5449 61.2178 40.5342C62.8301 44.2559 63.6299 48.2783 63.5645 52.334C63.3643 52.334 63.1963 52.3584 62.998 52.3584C61.0225 52.4209 59.0645 51.959 57.3262 51.0176C57.2002 36.6602 51.3018 28.0596 41 27.0918ZM111.934 63.9482C106.673 68.0176 99.3271 68.0176 94.0664 63.9482C87.4971 59.0576 78.4971 59.0576 71.9277 63.9482C69.3555 65.9033 66.2188 66.9736 62.9883 67C59.9922 67.0449 57.084 65.9834 54.8223 64.0176C48.708 59.0361 39.9355 59.0361 33.8223 64.0176C31.5615 65.9844 28.6533 67.0459 25.6582 67C22.6631 67.0449 19.7578 65.9834 17.498 64.0176C15.0752 62.0127 12.124 60.752 9 60.3877V51.7383C11.2627 51.9561 13.4521 52.6533 15.4238 53.7842C18.542 55.5469 22.0771 56.4365 25.6582 56.3604C29.4922 56.4111 33.2178 55.0859 36.1582 52.624C40.873 48.6455 47.7695 48.6455 52.4844 52.624C55.4258 55.0859 59.1523 56.4111 62.9883 56.3604C66.9717 56.333 70.8467 55.0498 74.0576 52.6924C79.3223 48.623 86.6699 48.623 91.9336 52.6924C95.1436 55.0518 99.0166 56.335 103 56.3604C106.752 56.375 110.454 55.5078 113.81 53.8301C116.06 52.6992 118.496 51.9863 121 51.7256V60.3857C117.728 60.7949 114.61 62.0205 111.934 63.9482Z" fill="#B86020"/>
<path d="M123 71.6397C118.938 71.6866 115.013 73.1084 111.864 75.6739C109.383 77.7744 106.25 78.9502 103 79C99.7705 78.9756 96.6357 77.9043 94.0664 75.9483C87.4971 71.0576 78.4971 71.0576 71.9277 75.9483C69.3555 77.9034 66.2188 78.9737 62.9883 79C59.9922 79.045 57.084 77.9834 54.8223 76.0176C48.708 71.0362 39.9355 71.0362 33.8223 76.0176C31.5615 77.9844 28.6533 79.0459 25.6582 79C22.6387 79.0215 19.7334 77.8545 17.5684 75.75C14.7012 73.0782 10.9189 71.6075 7 71.6397C5.89551 71.6397 5 72.5352 5 73.6397V85.6397C5 86.7442 5.89551 87.6397 7 87.6397C10.0186 87.6192 12.9238 88.7862 15.0879 90.8897C17.9561 93.5616 21.7383 95.0332 25.6582 95C29.4922 95.0508 33.2178 93.7246 36.1582 91.2617C40.874 87.2852 47.7695 87.2852 52.4863 91.2617C55.4268 93.7246 59.1533 95.0508 62.9883 95C66.9717 94.9727 70.8457 93.6905 74.0576 91.334C79.3203 87.2598 86.6719 87.2598 91.9336 91.334C95.1436 93.6924 99.0166 94.9756 103 95C107.062 94.9532 110.987 93.5313 114.136 90.9658C116.616 88.8643 119.749 87.6895 123 87.6397C124.104 87.6397 125 86.7442 125 85.6397V73.6397C125 72.5352 124.104 71.6397 123 71.6397ZM121 83.7481C117.657 84.2129 114.502 85.5694 111.864 87.6739C109.383 89.7744 106.25 90.9502 103 91C99.7705 90.9756 96.6357 89.9043 94.0664 87.9483C87.4971 83.0576 78.4971 83.0576 71.9277 87.9483C69.3555 89.9033 66.2188 90.9737 62.9883 91C59.9922 91.045 57.084 89.9834 54.8223 88.0176C48.708 83.0362 39.9355 83.0362 33.8223 88.0176C31.5615 89.9844 28.6533 91.0459 25.6582 91C22.6387 91.0215 19.7334 89.8545 17.5684 87.75C15.1904 85.5684 12.1992 84.1719 9 83.75V75.7998C11.2803 76.2334 13.3906 77.3037 15.0879 78.8858C17.9551 81.5596 21.7383 83.0313 25.6582 83C29.4922 83.0508 33.2178 81.7246 36.1582 79.2617C40.874 75.2852 47.7695 75.2852 52.4863 79.2617C55.4268 81.7246 59.1533 83.0508 62.9883 83C66.9717 82.9727 70.8457 81.6905 74.0576 79.334C79.3203 75.2598 86.6719 75.2598 91.9336 79.334C95.1436 81.6924 99.0166 82.9756 103 83C107.062 82.9532 110.987 81.5313 114.136 78.9659C116.124 77.3496 118.482 76.2539 121 75.7784V83.7481Z" fill="#B86020"/>
<path d="M15 15.6396C13.8955 15.6396 13 16.5352 13 17.6396V25.6396C13 26.7441 13.8955 27.6396 15 27.6396C16.1045 27.6396 17 26.7441 17 25.6396V17.6396C17 16.5352 16.1045 15.6396 15 15.6396Z" fill="#B86020"/>
</g>
<defs>
<filter id="filter0_d" x="0" y="0" width="130" height="104.001" filterUnits="userSpaceOnUse" color-interpolation-filters="sRGB">
<feFlood flood-opacity="0" result="BackgroundImageFix"/>
<feColorMatrix in="SourceAlpha" type="matrix" values="0 0 0 0 0 0 0 0 0 0 0 0 0 0 0 0 0 0 127 0"/>
<feOffset dy="4"/>
<feGaussianBlur stdDeviation="2.5"/>
<feColorMatrix type="matrix" values="0 0 0 0 0.8125 0 0 0 0 0.641552 0 0 0 0 0.379167 0 0 0 0.862 0"/>
<feBlend mode="normal" in2="BackgroundImageFix" result="effect1_dropShadow"/>
<feBlend mode="normal" in="SourceGraphic" in2="effect1_dropShadow" result="shape"/>
</filter>
</defs>
</svg>
